<svg width="20" height="20" viewBox="0 0 20 20" fill="none" xmlns="http://www.w3.org/2000/svg">
<path d="M15.4131 7.48272L16.8803 6.01553C18.7532 7.09598 20.0001 8.58909 20.0001 10.2437C20.0001 13.5468 15.0583 16.2171 10.0328 16.2241C9.01008 16.224 7.9902 16.1171 6.98973 15.9051L8.73102 14.1648C9.15563 14.2087 9.59021 14.2316 10.0298 14.2306H10.0318C9.61812 14.2306 9.21942 14.1678 8.84465 14.0512L10.8192 12.0757C11.2876 11.8743 11.6634 11.4986 11.8657 11.0301L13.8393 9.05556C14.0251 9.65073 14.0687 10.2812 13.9667 10.8963C13.8646 11.5114 13.6197 12.094 13.2517 12.5972C12.8836 13.1005 12.4027 13.5104 11.8474 13.7941C11.2922 14.0778 10.6782 14.2273 10.0547 14.2306C14.2858 14.2156 18.0066 12.0537 18.0066 10.2437C18.0066 9.30375 16.988 8.26415 15.4131 7.48272ZM6.14151 11.1158C6.01089 10.5331 6.01282 9.92854 6.14716 9.34671C6.2815 8.76487 6.54482 8.22064 6.91768 7.75421C7.29054 7.28778 7.7634 6.91106 8.30136 6.65188C8.83933 6.39269 9.42864 6.25765 10.0258 6.25674C5.82156 6.24178 2.0589 8.42762 2.0589 10.2437C2.0589 11.1367 2.95994 12.1145 4.37829 12.879L2.92506 14.3303C1.19572 13.2618 0.0654297 11.8235 0.0654297 10.2437C0.0654297 6.94049 5.03315 4.24633 10.0328 4.26327C10.9438 4.26626 11.8538 4.35696 12.7329 4.52441L10.9617 6.29461C10.6727 6.27268 10.3796 6.25973 10.0846 6.25674C10.3657 6.26072 10.6398 6.29361 10.9049 6.35242L6.14052 11.1158H6.14151ZM19.095 0.981029C19.2819 1.16794 19.3869 1.42142 19.3869 1.68572C19.3869 1.95002 19.2819 2.20349 19.095 2.39041L2.1805 19.305C2.08862 19.4002 1.97869 19.4762 1.85712 19.5286C1.73555 19.5809 1.60478 19.6085 1.47244 19.6097C1.34009 19.6109 1.20883 19.5858 1.0863 19.5358C0.963771 19.4858 0.852432 19.4118 0.758781 19.3183C0.66513 19.2248 0.591041 19.1136 0.540838 18.9911C0.490635 18.8686 0.465322 18.7374 0.466378 18.6051C0.467433 18.4727 0.494835 18.3419 0.546985 18.2203C0.599135 18.0986 0.674989 17.9886 0.77012 17.8966L17.6847 0.982026C17.7772 0.889353 17.8872 0.815835 18.0082 0.765675C18.1292 0.715515 18.2589 0.689697 18.3899 0.689697C18.5208 0.689697 18.6506 0.715515 18.7716 0.765675C18.8926 0.815835 19.0025 0.889353 19.095 0.982026V0.981029Z" fill="#7C7C7C"/>
</svg>
